 <svg width="133.899902" height="36.769531" viewBox="0 0 133.9 36.7695" fill="none" xmlns="http://www.w3.org/2000/svg" xmlns:xlink="http://www.w3.org/1999/xlink">
	<desc>
			Created with Pixso.
	</desc>
	<defs/>
	<path id="payapi" d="M49.7866 33.177L49.7866 25.337L49.8507 25.337C50.4054 26.1477 51.1146 26.761 51.9786 27.177Q52.2058 27.2864 52.4403 27.3765L52.4403 27.3766Q53.5438 27.801 54.8107 27.801C56.0267 27.801 57.088 27.5663 57.9946 27.097Q58.8507 26.6538 59.5293 26.0205L59.5293 26.0205Q59.9287 25.6477 60.2667 25.209C60.8746 24.4197 61.328 23.5129 61.6267 22.489Q61.6351 22.46 61.6434 22.431Q62.0747 20.9216 62.0747 19.2889Q62.0747 17.5289 61.6267 15.913C61.328 14.8357 60.8694 13.8916 60.2507 13.0809Q59.9723 12.7162 59.6506 12.3945Q58.9003 11.6442 57.9147 11.129Q56.5067 10.3929 54.5547 10.3929Q53.1669 10.3929 51.988 10.8893L51.9879 10.8894Q51.8621 10.9424 51.7386 11.001Q51.5215 11.1041 51.3173 11.2285Q50.3175 11.837 49.6267 12.953L49.5626 12.953L49.5626 10.8409L45.2427 10.8409L45.2427 33.177L49.7866 33.177ZM51.7386 23.9609C52.2507 24.2596 52.8694 24.4089 53.5947 24.4089C54.3413 24.4089 54.9653 24.2596 55.4667 23.9609C55.968 23.6624 56.3733 23.2729 56.6826 22.793C56.9921 22.313 57.2107 21.7529 57.3386 21.113C57.4667 20.473 57.5306 19.8223 57.5306 19.161Q57.5306 18.45 57.4238 17.7554Q57.3816 17.481 57.3226 17.209C57.184 16.569 56.9547 15.9983 56.6346 15.4969C56.3147 14.9956 55.9041 14.5903 55.4027 14.281C54.9014 13.9717 54.288 13.817 53.5626 13.817Q52.4426 13.817 51.6907 14.281C51.1893 14.5903 50.7841 14.9904 50.4747 15.481Q50.0106 16.217 49.8187 17.177C49.6907 17.817 49.6267 18.4783 49.6267 19.161Q49.6267 19.8719 49.7335 20.5665Q49.7758 20.8411 49.8347 21.113C49.9734 21.7529 50.1974 22.313 50.5067 22.793C50.816 23.2729 51.2267 23.6624 51.7386 23.9609ZM69.4766 27.801Q70.2139 27.801 70.9364 27.6978Q71.7191 27.5859 72.4845 27.353C73.4658 27.0543 74.3192 26.5316 75.0446 25.785C75.0659 26.0624 75.1031 26.3344 75.1565 26.601C75.2098 26.8677 75.2792 27.129 75.3645 27.385L79.9725 27.385C79.7592 27.0437 79.6099 26.5316 79.5245 25.849C79.4392 25.1663 79.3965 24.4517 79.3965 23.705L79.3965 15.097C79.3965 14.0944 79.1725 13.2889 78.7245 12.681Q78.4912 12.3644 78.2115 12.0959Q77.6859 11.5912 76.9966 11.257C76.2925 10.9156 75.5139 10.6863 74.6605 10.569Q73.3805 10.3929 72.1326 10.3929Q71.7245 10.3929 71.3179 10.4169Q70.3533 10.4736 69.3965 10.665C68.4899 10.8463 67.6738 11.1503 66.9485 11.577C66.2231 12.0037 65.6259 12.569 65.1565 13.2729C64.6871 13.9769 64.4205 14.8623 64.3566 15.929L68.9005 15.929C68.9858 15.033 69.2845 14.3929 69.7965 14.009Q70.5646 13.433 71.9086 13.433Q72.5165 13.433 73.0446 13.5129Q73.5725 13.593 73.9725 13.833C74.2391 13.993 74.4525 14.217 74.6125 14.505C74.7725 14.793 74.8525 15.1824 74.8525 15.673C74.854 15.7042 74.8546 15.7351 74.8546 15.7654C74.8546 16.1895 74.7153 16.516 74.4365 16.745C74.1378 16.9904 73.7325 17.177 73.2206 17.3049C72.7085 17.433 72.1218 17.5289 71.4606 17.593C70.7992 17.657 70.1272 17.7423 69.4446 17.849C68.7618 17.9557 68.0845 18.0996 67.4125 18.281Q66.4045 18.553 65.6205 19.097C65.0979 19.4596 64.6711 19.9449 64.3406 20.553Q63.8445 21.465 63.8445 22.873C63.8445 23.7263 63.9885 24.4623 64.2765 25.0809C64.5646 25.6997 64.9645 26.2117 65.4766 26.6169C65.9885 27.0223 66.5858 27.321 67.2686 27.5129C67.9512 27.705 68.6871 27.801 69.4766 27.801ZM70.1166 24.697C70.4579 24.761 70.8098 24.793 71.1725 24.793Q72.5165 24.793 73.2526 24.345C73.7432 24.0463 74.1058 23.689 74.3406 23.2729C74.5752 22.8569 74.7192 22.4357 74.7725 22.009Q74.8525 21.369 74.8525 20.985L74.8525 19.2889C74.6605 19.4596 74.4205 19.593 74.1326 19.689C73.8445 19.785 73.5352 19.865 73.2045 19.929C72.8739 19.993 72.5272 20.0463 72.1646 20.089C71.8019 20.1317 71.4392 20.1849 71.0765 20.249C70.7352 20.313 70.3992 20.3983 70.0685 20.505C69.7378 20.6117 69.4498 20.7556 69.2045 20.937C68.9592 21.1183 68.7618 21.3477 68.6125 21.625C68.4631 21.9023 68.3885 22.2543 68.3885 22.681Q68.3885 23.2889 68.6125 23.705C68.7618 23.9823 68.9645 24.2009 69.2206 24.361C69.4766 24.521 69.7751 24.6329 70.1166 24.697ZM85.1344 33.177C86.6917 33.177 87.9077 32.889 88.7823 32.313C89.657 31.7369 90.3397 30.777 90.8303 29.433L97.7423 10.8409L93.0383 10.8409L89.4224 22.1689L89.3584 22.1689L85.6144 10.8409L80.7823 10.8409L86.5743 26.361C86.7024 26.681 86.7664 27.0223 86.7664 27.385C86.7664 27.8756 86.6223 28.3236 86.3344 28.729C86.0464 29.1343 85.6038 29.369 85.0063 29.433C84.5583 29.4543 84.1104 29.4436 83.6624 29.401C83.2144 29.3583 82.777 29.3157 82.3503 29.2729L82.3503 33.017C82.8197 33.0597 83.2837 33.097 83.7423 33.129C84.201 33.161 84.665 33.177 85.1344 33.177ZM103.832 27.769C104.622 27.769 105.347 27.673 106.008 27.481C106.67 27.2889 107.262 27.0223 107.784 26.681C108.307 26.3396 108.75 25.9503 109.112 25.5129C109.475 25.0757 109.752 24.6117 109.944 24.121L110.008 24.121L110.008 24.985C110.008 25.3263 110.035 25.641 110.088 25.929C110.142 26.217 110.243 26.4677 110.392 26.681Q110.616 27.001 111.048 27.193C111.336 27.321 111.726 27.385 112.216 27.385C112.557 27.385 112.888 27.3423 113.208 27.257L113.208 26.233Q112.632 26.329 112.312 26.329Q111.896 26.329 111.672 26.153Q111.603 26.0985 111.546 26.0332Q111.418 25.8878 111.352 25.689C111.288 25.4969 111.251 25.2837 111.24 25.049C111.229 24.8143 111.224 24.5797 111.224 24.345L111.224 14.777C111.224 13.5183 110.771 12.4996 109.864 11.7209Q108.504 10.553 105.528 10.553Q102.552 10.553 100.936 11.913C99.8589 12.8197 99.2776 14.1797 99.1923 15.993L100.408 15.993C100.494 14.521 100.99 13.4224 101.896 12.697Q101.918 12.6796 101.94 12.6625Q103.292 11.609 105.464 11.609C106.296 11.609 107 11.6943 107.576 11.865C108.152 12.0356 108.622 12.2703 108.984 12.569C109.347 12.8677 109.614 13.209 109.784 13.593Q109.819 13.6719 109.85 13.7527Q110.04 14.2611 110.04 14.8409C110.04 15.417 110.008 15.897 109.944 16.281C109.88 16.665 109.72 16.9796 109.464 17.225C109.208 17.4703 108.83 17.6624 108.328 17.801C107.827 17.9397 107.139 18.041 106.264 18.105L104.376 18.265Q103.384 18.361 102.312 18.585C101.598 18.7344 100.947 18.985 100.36 19.337C99.7736 19.689 99.2882 20.1689 98.9042 20.777C98.5203 21.385 98.3282 22.1689 98.3282 23.129C98.3282 24.7076 98.8082 25.8756 99.7682 26.6329C100.728 27.3904 102.083 27.769 103.832 27.769ZM100.696 25.833C101.464 26.4197 102.52 26.713 103.864 26.713Q105.944 26.713 107.16 25.9609C107.971 25.4596 108.59 24.8837 109.016 24.233C109.443 23.5823 109.715 22.953 109.832 22.345C109.95 21.7369 110.008 21.3263 110.008 21.113L110.008 18.041C109.71 18.4037 109.256 18.6489 108.648 18.777C108.04 18.905 107.363 19.001 106.616 19.0649L104.568 19.257C103.971 19.321 103.374 19.4116 102.776 19.5289Q101.88 19.705 101.16 20.121C100.68 20.3983 100.291 20.777 99.9922 21.257C99.6936 21.7369 99.5442 22.361 99.5442 23.129C99.5442 24.345 99.9282 25.2463 100.696 25.833ZM116.354 33.2729L116.354 23.9609L116.418 23.9609C116.909 25.3049 117.687 26.2756 118.754 26.873C119.821 27.4703 121.037 27.769 122.402 27.769C123.661 27.769 124.754 27.5557 125.682 27.129C126.61 26.7023 127.378 26.1104 127.986 25.353C128.594 24.5957 129.047 23.6943 129.346 22.6489C129.645 21.6036 129.794 20.4517 129.794 19.193C129.794 18.041 129.645 16.9423 129.346 15.897C129.047 14.8517 128.594 13.9343 127.986 13.145C127.378 12.3557 126.61 11.7263 125.682 11.257C124.754 10.7876 123.661 10.553 122.402 10.553C121.506 10.553 120.711 10.6917 120.018 10.969C119.325 11.2463 118.733 11.593 118.242 12.009Q117.506 12.6329 117.058 13.369Q116.61 14.105 116.418 14.713L116.354 14.713L116.354 10.937L115.138 10.937L115.138 33.2729L116.354 33.2729ZM119.506 26.089Q120.674 26.713 122.402 26.713C123.469 26.713 124.391 26.5104 125.17 26.105C125.949 25.6997 126.589 25.1556 127.09 24.473C127.591 23.7903 127.965 22.9956 128.21 22.089C128.455 21.1824 128.578 20.217 128.578 19.193C128.578 18.2543 128.461 17.3317 128.226 16.425C127.991 15.5183 127.629 14.7076 127.138 13.993C126.647 13.2783 126.013 12.7023 125.234 12.265Q124.066 11.609 122.402 11.609C121.314 11.609 120.386 11.8223 119.618 12.249C118.85 12.6757 118.226 13.241 117.746 13.9449C117.266 14.6489 116.919 15.4543 116.706 16.361Q116.386 17.7209 116.386 19.193Q116.386 20.665 116.674 22.025Q116.962 23.385 117.65 24.425Q117.825 24.689 118.03 24.926Q118.635 25.6233 119.506 26.089ZM133.9 7.83301L133.9 4.53699L132.684 4.53699L132.684 7.83301L133.9 7.83301ZM133.9 27.385L133.9 10.937L132.684 10.937L132.684 27.385L133.9 27.385Z" clip-rule="evenodd" fill="#36536B" fill-opacity="1.000000" fill-rule="evenodd"/>
	<circle id="Oval" r="3.000000" transform="matrix(0.707107 0.707107 -0.707107 0.707107 18.3848 4.24268)" fill="#36536B" fill-opacity="1.000000"/>
	<circle id="Oval" r="3.000000" transform="matrix(0.707107 0.707107 -0.707107 0.707107 18.3848 4.24268)" stroke="#979797" stroke-opacity="0" stroke-width="0.000000"/>
	<circle id="Oval Copy 6" r="3.000000" transform="matrix(0.707107 0.707107 -0.707107 0.707107 25.4558 11.3137)" fill="#36536B" fill-opacity="1.000000"/>
	<circle id="Oval Copy 6" r="3.000000" transform="matrix(0.707107 0.707107 -0.707107 0.707107 25.4558 11.3137)" stroke="#979797" stroke-opacity="0" stroke-width="0.000000"/>
	<circle id="Oval Copy 7" r="3.000000" transform="matrix(0.707107 0.707107 -0.707107 0.707107 32.527 18.3849)" fill="#36536B" fill-opacity="1.000000"/>
	<circle id="Oval Copy 7" r="3.000000" transform="matrix(0.707107 0.707107 -0.707107 0.707107 32.527 18.3849)" stroke="#979797" stroke-opacity="0" stroke-width="0.000000"/>
	<circle id="Oval Copy 10" r="3.000000" transform="matrix(0.707107 0.707107 -0.707107 0.707107 11.3137 11.3137)" fill="#36536B" fill-opacity="1.000000"/>
	<circle id="Oval Copy 10" r="3.000000" transform="matrix(0.707107 0.707107 -0.707107 0.707107 11.3137 11.3137)" stroke="#979797" stroke-opacity="0" stroke-width="0.000000"/>
	<g opacity="0.500000" style="mix-blend-mode:normal">
		<circle id="Oval Copy 9" r="3.000000" transform="matrix(0.707107 0.707107 -0.707107 0.707107 18.3848 18.3849)" fill="#36536B" fill-opacity="1.000000"/>
		<circle id="Oval Copy 9" r="3.000000" transform="matrix(0.707107 0.707107 -0.707107 0.707107 18.3848 18.3849)" stroke="#979797" stroke-opacity="0" stroke-width="0.000000"/>
	</g>
	<g opacity="0.500000" style="mix-blend-mode:normal">
		<circle id="Oval Copy 8" r="3.000000" transform="matrix(0.707107 0.707107 -0.707107 0.707107 25.4558 25.4559)" fill="#36536B" fill-opacity="1.000000"/>
		<circle id="Oval Copy 8" r="3.000000" transform="matrix(0.707107 0.707107 -0.707107 0.707107 25.4558 25.4559)" stroke="#979797" stroke-opacity="0" stroke-width="0.000000"/>
	</g>
	<circle id="Oval Copy 13" r="3.000000" transform="matrix(0.707107 0.707107 -0.707107 0.707107 4.24268 18.3849)" fill="#36536B" fill-opacity="1.000000"/>
	<circle id="Oval Copy 13" r="3.000000" transform="matrix(0.707107 0.707107 -0.707107 0.707107 4.24268 18.3849)" stroke="#979797" stroke-opacity="0" stroke-width="0.000000"/>
	<g opacity="0.500000" style="mix-blend-mode:normal">
		<circle id="Oval Copy 12" r="3.000000" transform="matrix(0.707107 0.707107 -0.707107 0.707107 11.3137 25.4559)" fill="#36536B" fill-opacity="1.000000"/>
		<circle id="Oval Copy 12" r="3.000000" transform="matrix(0.707107 0.707107 -0.707107 0.707107 11.3137 25.4559)" stroke="#979797" stroke-opacity="0" stroke-width="0.000000"/>
	</g>
	<g opacity="0.250000" style="mix-blend-mode:normal">
		<circle id="Oval Copy 11" r="3.000000" transform="matrix(0.707107 0.707107 -0.707107 0.707107 18.3848 32.527)" fill="#36536B" fill-opacity="1.000000"/>
		<circle id="Oval Copy 11" r="3.000000" transform="matrix(0.707107 0.707107 -0.707107 0.707107 18.3848 32.527)" stroke="#979797" stroke-opacity="0" stroke-width="0.000000"/>
	</g>
</svg>
